# xmcd
#
# Track frame offsets:
#	150
#	20665
#	38082
#	55253
#	73697
#	90709
#	106099
#	121237
#	138319
#	153174
#	171310
#
# Disc length: 2498 seconds
#
# Revision: 1
# Processed by: cddbd v1.5.2PL0 Copyright (c) Steve Scherf et al.
# Submitted via: audiograbber 1.83.01
#
DISCID=8c09c00b
DTITLE=Violet Delancey - When the Clock Strikes Midnight
DYEAR=2015
DGENRE=Country
TTITLE0=When the Clock Strikes Midnight
TTITLE1=Lost Along the Way
TTITLE2=Back to the Sea
TTITLE3=Sing the Night Away
TTITLE4=She Ain't Goin' Nowhere
TTITLE5=My Irish Man
TTITLE6=Walk Along This Road
TTITLE7=Will You Love Me
TTITLE8=Theme Song
TTITLE9=Luxury Liner
TTITLE10=First Goodbye
EXTD=
EXTT0=
EXTT1=
EXTT2=
EXTT3=
EXTT4=
EXTT5=
EXTT6=
EXTT7=
EXTT8=
EXTT9=
EXTT10=
PLAYORDER=
